<svg width="746" height="116" viewBox="0 0 746 116" fill="none" xmlns="http://www.w3.org/2000/svg">
<rect width="746" height="116" fill="url(#paint0_linear_1_3)"/>
<path d="M151.82 47.5547H143.031V42.4922H151.82C153.258 42.4922 154.422 42.2578 155.312 41.7891C156.219 41.3047 156.883 40.6484 157.305 39.8203C157.727 38.9766 157.938 38.0156 157.938 36.9375C157.938 35.8906 157.727 34.9141 157.305 34.0078C156.883 33.1016 156.219 32.3672 155.312 31.8047C154.422 31.2422 153.258 30.9609 151.82 30.9609H145.141V60H138.695V25.875H151.82C154.477 25.875 156.742 26.3516 158.617 27.3047C160.508 28.2422 161.945 29.5469 162.93 31.2188C163.93 32.875 164.43 34.7656 164.43 36.8906C164.43 39.0938 163.93 40.9922 162.93 42.5859C161.945 44.1797 160.508 45.4062 158.617 46.2656C156.742 47.125 154.477 47.5547 151.82 47.5547ZM175.211 39.8203V60H169.023V34.6406H174.883L175.211 39.8203ZM182.922 34.4766L182.828 40.2422C182.484 40.1797 182.094 40.1328 181.656 40.1016C181.234 40.0703 180.836 40.0547 180.461 40.0547C179.508 40.0547 178.672 40.1875 177.953 40.4531C177.234 40.7031 176.633 41.0703 176.148 41.5547C175.68 42.0391 175.32 42.6328 175.07 43.3359C174.82 44.0234 174.68 44.8047 174.648 45.6797L173.312 45.5156C173.312 43.9062 173.477 42.4141 173.805 41.0391C174.133 39.6641 174.609 38.4609 175.234 37.4297C175.859 36.3984 176.641 35.6016 177.578 35.0391C178.531 34.4609 179.625 34.1719 180.859 34.1719C181.203 34.1719 181.57 34.2031 181.961 34.2656C182.367 34.3125 182.688 34.3828 182.922 34.4766ZM184.562 47.5781V47.0859C184.562 45.2266 184.828 43.5156 185.359 41.9531C185.891 40.375 186.664 39.0078 187.68 37.8516C188.695 36.6953 189.938 35.7969 191.406 35.1562C192.875 34.5 194.547 34.1719 196.422 34.1719C198.328 34.1719 200.016 34.5 201.484 35.1562C202.969 35.7969 204.219 36.6953 205.234 37.8516C206.25 39.0078 207.023 40.375 207.555 41.9531C208.086 43.5156 208.352 45.2266 208.352 47.0859V47.5781C208.352 49.4219 208.086 51.1328 207.555 52.7109C207.023 54.2734 206.25 55.6406 205.234 56.8125C204.219 57.9688 202.977 58.8672 201.508 59.5078C200.039 60.1484 198.359 60.4688 196.469 60.4688C194.594 60.4688 192.914 60.1484 191.43 59.5078C189.945 58.8672 188.695 57.9688 187.68 56.8125C186.664 55.6406 185.891 54.2734 185.359 52.7109C184.828 51.1328 184.562 49.4219 184.562 47.5781ZM190.75 47.0859V47.5781C190.75 48.6875 190.859 49.7266 191.078 50.6953C191.297 51.6641 191.633 52.5156 192.086 53.25C192.539 53.9844 193.125 54.5625 193.844 54.9844C194.578 55.3906 195.453 55.5938 196.469 55.5938C197.469 55.5938 198.328 55.3906 199.047 54.9844C199.766 54.5625 200.352 53.9844 200.805 53.25C201.273 52.5156 201.617 51.6641 201.836 50.6953C202.055 49.7266 202.164 48.6875 202.164 47.5781V47.0859C202.164 45.9922 202.055 44.9688 201.836 44.0156C201.617 43.0469 201.273 42.1953 200.805 41.4609C200.352 40.7109 199.758 40.125 199.023 39.7031C198.305 39.2656 197.438 39.0469 196.422 39.0469C195.422 39.0469 194.562 39.2656 193.844 39.7031C193.125 40.125 192.539 40.7109 192.086 41.4609C191.633 42.1953 191.297 43.0469 191.078 44.0156C190.859 44.9688 190.75 45.9922 190.75 47.0859ZM219.039 23.9766V60H212.852V23.9766H219.039ZM234.93 34.6406L223.891 47.0391L217.914 53.1094L215.945 48.3047L220.562 42.4922L227.453 34.6406H234.93ZM228.602 60L220.75 48.1875L224.875 44.1797L235.773 60H228.602ZM237.109 47.5781V47.0859C237.109 45.2266 237.375 43.5156 237.906 41.9531C238.438 40.375 239.211 39.0078 240.227 37.8516C241.242 36.6953 242.484 35.7969 243.953 35.1562C245.422 34.5 247.094 34.1719 248.969 34.1719C250.875 34.1719 252.562 34.5 254.031 35.1562C255.516 35.7969 256.766 36.6953 257.781 37.8516C258.797 39.0078 259.57 40.375 260.102 41.9531C260.633 43.5156 260.898 45.2266 260.898 47.0859V47.5781C260.898 49.4219 260.633 51.1328 260.102 52.7109C259.57 54.2734 258.797 55.6406 257.781 56.8125C256.766 57.9688 255.523 58.8672 254.055 59.5078C252.586 60.1484 250.906 60.4688 249.016 60.4688C247.141 60.4688 245.461 60.1484 243.977 59.5078C242.492 58.8672 241.242 57.9688 240.227 56.8125C239.211 55.6406 238.438 54.2734 237.906 52.7109C237.375 51.1328 237.109 49.4219 237.109 47.5781ZM243.297 47.0859V47.5781C243.297 48.6875 243.406 49.7266 243.625 50.6953C243.844 51.6641 244.18 52.5156 244.633 53.25C245.086 53.9844 245.672 54.5625 246.391 54.9844C247.125 55.3906 248 55.5938 249.016 55.5938C250.016 55.5938 250.875 55.3906 251.594 54.9844C252.312 54.5625 252.898 53.9844 253.352 53.25C253.82 52.5156 254.164 51.6641 254.383 50.6953C254.602 49.7266 254.711 48.6875 254.711 47.5781V47.0859C254.711 45.9922 254.602 44.9688 254.383 44.0156C254.164 43.0469 253.82 42.1953 253.352 41.4609C252.898 40.7109 252.305 40.125 251.57 39.7031C250.852 39.2656 249.984 39.0469 248.969 39.0469C247.969 39.0469 247.109 39.2656 246.391 39.7031C245.672 40.125 245.086 40.7109 244.633 41.4609C244.18 42.1953 243.844 43.0469 243.625 44.0156C243.406 44.9688 243.297 45.9922 243.297 47.0859ZM271.586 39.5156V69.75H265.375V34.6406H271.117L271.586 39.5156ZM287.875 47.0625V47.5547C287.875 49.3984 287.656 51.1094 287.219 52.6875C286.797 54.25 286.172 55.6172 285.344 56.7891C284.516 57.9453 283.484 58.8516 282.25 59.5078C281.031 60.1484 279.625 60.4688 278.031 60.4688C276.469 60.4688 275.109 60.1719 273.953 59.5781C272.797 58.9688 271.82 58.1094 271.023 57C270.227 55.8906 269.586 54.6016 269.102 53.1328C268.633 51.6484 268.281 50.0312 268.047 48.2812V46.7109C268.281 44.8516 268.633 43.1641 269.102 41.6484C269.586 40.1172 270.227 38.7969 271.023 37.6875C271.82 36.5625 272.789 35.6953 273.93 35.0859C275.086 34.4766 276.438 34.1719 277.984 34.1719C279.594 34.1719 281.008 34.4766 282.227 35.0859C283.461 35.6953 284.5 36.5703 285.344 37.7109C286.188 38.8516 286.82 40.2109 287.242 41.7891C287.664 43.3672 287.875 45.125 287.875 47.0625ZM281.664 47.5547V47.0625C281.664 45.9375 281.562 44.8984 281.359 43.9453C281.156 42.9766 280.844 42.1328 280.422 41.4141C280 40.6797 279.453 40.1094 278.781 39.7031C278.109 39.2969 277.297 39.0938 276.344 39.0938C275.391 39.0938 274.57 39.25 273.883 39.5625C273.195 39.875 272.633 40.3203 272.195 40.8984C271.758 41.4766 271.414 42.1641 271.164 42.9609C270.93 43.7422 270.773 44.6094 270.695 45.5625V49.4531C270.836 50.6094 271.109 51.6484 271.516 52.5703C271.922 53.4922 272.516 54.2266 273.297 54.7734C274.094 55.3203 275.125 55.5938 276.391 55.5938C277.344 55.5938 278.156 55.3828 278.828 54.9609C279.5 54.5391 280.047 53.9609 280.469 53.2266C280.891 52.4766 281.195 51.6172 281.383 50.6484C281.57 49.6797 281.664 48.6484 281.664 47.5547ZM303.789 60.4688C301.867 60.4688 300.141 60.1562 298.609 59.5312C297.078 58.9062 295.773 58.0391 294.695 56.9297C293.633 55.8047 292.812 54.5 292.234 53.0156C291.672 51.5156 291.391 49.9062 291.391 48.1875V47.25C291.391 45.2969 291.672 43.5234 292.234 41.9297C292.797 40.3203 293.594 38.9375 294.625 37.7812C295.656 36.625 296.891 35.7344 298.328 35.1094C299.766 34.4844 301.352 34.1719 303.086 34.1719C304.883 34.1719 306.469 34.4766 307.844 35.0859C309.219 35.6797 310.367 36.5234 311.289 37.6172C312.211 38.7109 312.906 40.0234 313.375 41.5547C313.844 43.0703 314.078 44.75 314.078 46.5938V49.1953H294.203V44.9297H307.984V44.4609C307.953 43.4766 307.766 42.5781 307.422 41.7656C307.078 40.9375 306.547 40.2812 305.828 39.7969C305.109 39.2969 304.18 39.0469 303.039 39.0469C302.117 39.0469 301.312 39.25 300.625 39.6562C299.953 40.0469 299.391 40.6094 298.938 41.3438C298.5 42.0625 298.172 42.9219 297.953 43.9219C297.734 44.9219 297.625 46.0312 297.625 47.25V48.1875C297.625 49.25 297.766 50.2344 298.047 51.1406C298.344 52.0469 298.773 52.8359 299.336 53.5078C299.914 54.1641 300.602 54.6797 301.398 55.0547C302.211 55.4141 303.133 55.5938 304.164 55.5938C305.461 55.5938 306.633 55.3438 307.68 54.8438C308.742 54.3281 309.664 53.5703 310.445 52.5703L313.562 55.8047C313.031 56.5859 312.312 57.3359 311.406 58.0547C310.516 58.7734 309.438 59.3594 308.172 59.8125C306.906 60.25 305.445 60.4688 303.789 60.4688ZM330.227 34.6406V39.0938H315.695V34.6406H330.227ZM319.586 28.4062H325.797V52.6875C325.797 53.4375 325.898 54.0156 326.102 54.4219C326.305 54.8281 326.609 55.1016 327.016 55.2422C327.422 55.3828 327.906 55.4531 328.469 55.4531C328.875 55.4531 329.25 55.4297 329.594 55.3828C329.938 55.3359 330.227 55.2891 330.461 55.2422L330.484 59.8828C329.969 60.0547 329.383 60.1953 328.727 60.3047C328.086 60.4141 327.359 60.4688 326.547 60.4688C325.156 60.4688 323.938 60.2344 322.891 59.7656C321.844 59.2812 321.031 58.5078 320.453 57.4453C319.875 56.3672 319.586 54.9453 319.586 53.1797V28.4062ZM348.297 53.0625C348.297 52.5312 348.156 52.0547 347.875 51.6328C347.594 51.2109 347.062 50.8281 346.281 50.4844C345.516 50.125 344.391 49.7891 342.906 49.4766C341.594 49.1953 340.383 48.8438 339.273 48.4219C338.164 48 337.211 47.4922 336.414 46.8984C335.617 46.2891 334.992 45.5781 334.539 44.7656C334.102 43.9375 333.883 42.9844 333.883 41.9062C333.883 40.8594 334.109 39.875 334.562 38.9531C335.016 38.0156 335.672 37.1953 336.531 36.4922C337.391 35.7734 338.438 35.2109 339.672 34.8047C340.906 34.3828 342.297 34.1719 343.844 34.1719C346 34.1719 347.852 34.5234 349.398 35.2266C350.961 35.9297 352.156 36.8984 352.984 38.1328C353.812 39.3516 354.227 40.7266 354.227 42.2578H348.039C348.039 41.5859 347.883 40.9766 347.57 40.4297C347.273 39.8828 346.812 39.4453 346.188 39.1172C345.562 38.7734 344.773 38.6016 343.82 38.6016C342.961 38.6016 342.234 38.7422 341.641 39.0234C341.062 39.3047 340.625 39.6719 340.328 40.125C340.031 40.5781 339.883 41.0781 339.883 41.625C339.883 42.0312 339.961 42.3984 340.117 42.7266C340.289 43.0391 340.562 43.3281 340.938 43.5938C341.312 43.8594 341.82 44.1016 342.461 44.3203C343.117 44.5391 343.922 44.75 344.875 44.9531C346.766 45.3281 348.414 45.8281 349.82 46.4531C351.242 47.0625 352.352 47.875 353.148 48.8906C353.945 49.9062 354.344 51.2031 354.344 52.7812C354.344 53.9062 354.102 54.9375 353.617 55.875C353.133 56.7969 352.43 57.6016 351.508 58.2891C350.586 58.9766 349.484 59.5156 348.203 59.9062C346.922 60.2812 345.477 60.4688 343.867 60.4688C341.539 60.4688 339.57 60.0547 337.961 59.2266C336.352 58.3828 335.133 57.3203 334.305 56.0391C333.477 54.7422 333.062 53.3984 333.062 52.0078H338.992C339.039 52.9922 339.305 53.7812 339.789 54.375C340.273 54.9688 340.883 55.3984 341.617 55.6641C342.367 55.9141 343.156 56.0391 343.984 56.0391C344.922 56.0391 345.711 55.9141 346.352 55.6641C346.992 55.3984 347.477 55.0469 347.805 54.6094C348.133 54.1562 348.297 53.6406 348.297 53.0625ZM385.047 31.0547L375.32 60H368.5L381.25 25.875H385.609L385.047 31.0547ZM393.18 60L383.406 31.0547L382.82 25.875H387.203L400.023 60H393.18ZM392.734 47.3203V52.4062H374.43V47.3203H392.734ZM409.633 24V60H403.422V24H409.633ZM426.93 60.4688C425.008 60.4688 423.281 60.1562 421.75 59.5312C420.219 58.9062 418.914 58.0391 417.836 56.9297C416.773 55.8047 415.953 54.5 415.375 53.0156C414.812 51.5156 414.531 49.9062 414.531 48.1875V47.25C414.531 45.2969 414.812 43.5234 415.375 41.9297C415.938 40.3203 416.734 38.9375 417.766 37.7812C418.797 36.625 420.031 35.7344 421.469 35.1094C422.906 34.4844 424.492 34.1719 426.227 34.1719C428.023 34.1719 429.609 34.4766 430.984 35.0859C432.359 35.6797 433.508 36.5234 434.43 37.6172C435.352 38.7109 436.047 40.0234 436.516 41.5547C436.984 43.0703 437.219 44.75 437.219 46.5938V49.1953H417.344V44.9297H431.125V44.4609C431.094 43.4766 430.906 42.5781 430.562 41.7656C430.219 40.9375 429.688 40.2812 428.969 39.7969C428.25 39.2969 427.32 39.0469 426.18 39.0469C425.258 39.0469 424.453 39.25 423.766 39.6562C423.094 40.0469 422.531 40.6094 422.078 41.3438C421.641 42.0625 421.312 42.9219 421.094 43.9219C420.875 44.9219 420.766 46.0312 420.766 47.25V48.1875C420.766 49.25 420.906 50.2344 421.188 51.1406C421.484 52.0469 421.914 52.8359 422.477 53.5078C423.055 54.1641 423.742 54.6797 424.539 55.0547C425.352 55.4141 426.273 55.5938 427.305 55.5938C428.602 55.5938 429.773 55.3438 430.82 54.8438C431.883 54.3281 432.805 53.5703 433.586 52.5703L436.703 55.8047C436.172 56.5859 435.453 57.3359 434.547 58.0547C433.656 58.7734 432.578 59.3594 431.312 59.8125C430.047 60.25 428.586 60.4688 426.93 60.4688ZM447.555 23.9766V60H441.367V23.9766H447.555ZM463.445 34.6406L452.406 47.0391L446.43 53.1094L444.461 48.3047L449.078 42.4922L455.969 34.6406H463.445ZM457.117 60L449.266 48.1875L453.391 44.1797L464.289 60H457.117ZM480.672 53.0625C480.672 52.5312 480.531 52.0547 480.25 51.6328C479.969 51.2109 479.438 50.8281 478.656 50.4844C477.891 50.125 476.766 49.7891 475.281 49.4766C473.969 49.1953 472.758 48.8438 471.648 48.4219C470.539 48 469.586 47.4922 468.789 46.8984C467.992 46.2891 467.367 45.5781 466.914 44.7656C466.477 43.9375 466.258 42.9844 466.258 41.9062C466.258 40.8594 466.484 39.875 466.938 38.9531C467.391 38.0156 468.047 37.1953 468.906 36.4922C469.766 35.7734 470.812 35.2109 472.047 34.8047C473.281 34.3828 474.672 34.1719 476.219 34.1719C478.375 34.1719 480.227 34.5234 481.773 35.2266C483.336 35.9297 484.531 36.8984 485.359 38.1328C486.188 39.3516 486.602 40.7266 486.602 42.2578H480.414C480.414 41.5859 480.258 40.9766 479.945 40.4297C479.648 39.8828 479.188 39.4453 478.562 39.1172C477.938 38.7734 477.148 38.6016 476.195 38.6016C475.336 38.6016 474.609 38.7422 474.016 39.0234C473.438 39.3047 473 39.6719 472.703 40.125C472.406 40.5781 472.258 41.0781 472.258 41.625C472.258 42.0312 472.336 42.3984 472.492 42.7266C472.664 43.0391 472.938 43.3281 473.312 43.5938C473.688 43.8594 474.195 44.1016 474.836 44.3203C475.492 44.5391 476.297 44.75 477.25 44.9531C479.141 45.3281 480.789 45.8281 482.195 46.4531C483.617 47.0625 484.727 47.875 485.523 48.8906C486.32 49.9062 486.719 51.2031 486.719 52.7812C486.719 53.9062 486.477 54.9375 485.992 55.875C485.508 56.7969 484.805 57.6016 483.883 58.2891C482.961 58.9766 481.859 59.5156 480.578 59.9062C479.297 60.2812 477.852 60.4688 476.242 60.4688C473.914 60.4688 471.945 60.0547 470.336 59.2266C468.727 58.3828 467.508 57.3203 466.68 56.0391C465.852 54.7422 465.438 53.3984 465.438 52.0078H471.367C471.414 52.9922 471.68 53.7812 472.164 54.375C472.648 54.9688 473.258 55.3984 473.992 55.6641C474.742 55.9141 475.531 56.0391 476.359 56.0391C477.297 56.0391 478.086 55.9141 478.727 55.6641C479.367 55.3984 479.852 55.0469 480.18 54.6094C480.508 54.1562 480.672 53.6406 480.672 53.0625ZM505.398 54.6094V42.9141C505.398 42.0547 505.25 41.3125 504.953 40.6875C504.656 40.0625 504.203 39.5781 503.594 39.2344C502.984 38.8906 502.211 38.7188 501.273 38.7188C500.445 38.7188 499.719 38.8594 499.094 39.1406C498.484 39.4219 498.016 39.8203 497.688 40.3359C497.359 40.8359 497.195 41.4141 497.195 42.0703H490.984C490.984 41.0234 491.234 40.0312 491.734 39.0938C492.234 38.1406 492.945 37.2969 493.867 36.5625C494.805 35.8125 495.922 35.2266 497.219 34.8047C498.531 34.3828 500 34.1719 501.625 34.1719C503.547 34.1719 505.258 34.5 506.758 35.1562C508.273 35.7969 509.461 36.7656 510.32 38.0625C511.195 39.3594 511.633 40.9922 511.633 42.9609V54.0234C511.633 55.2891 511.711 56.375 511.867 57.2812C512.039 58.1719 512.289 58.9453 512.617 59.6016V60H506.312C506.016 59.3594 505.789 58.5469 505.633 57.5625C505.477 56.5625 505.398 55.5781 505.398 54.6094ZM506.266 44.5547L506.312 48.2344H502.398C501.43 48.2344 500.578 48.3359 499.844 48.5391C499.109 48.7266 498.508 49.0078 498.039 49.3828C497.57 49.7422 497.219 50.1797 496.984 50.6953C496.75 51.1953 496.633 51.7656 496.633 52.4062C496.633 53.0312 496.773 53.5938 497.055 54.0938C497.352 54.5938 497.773 54.9922 498.32 55.2891C498.883 55.5703 499.539 55.7109 500.289 55.7109C501.383 55.7109 502.336 55.4922 503.148 55.0547C503.961 54.6016 504.594 54.0547 505.047 53.4141C505.5 52.7734 505.742 52.1641 505.773 51.5859L507.555 54.2578C507.336 54.8984 507.008 55.5781 506.57 56.2969C506.133 57.0156 505.57 57.6875 504.883 58.3125C504.195 58.9375 503.367 59.4531 502.398 59.8594C501.43 60.2656 500.305 60.4688 499.023 60.4688C497.383 60.4688 495.914 60.1406 494.617 59.4844C493.32 58.8281 492.297 57.9297 491.547 56.7891C490.797 55.6484 490.422 54.3516 490.422 52.8984C490.422 51.5547 490.672 50.3672 491.172 49.3359C491.672 48.3047 492.414 47.4375 493.398 46.7344C494.383 46.0156 495.602 45.4766 497.055 45.1172C498.523 44.7422 500.203 44.5547 502.094 44.5547H506.266ZM523.281 40.0547V60H517.094V34.6406H522.906L523.281 40.0547ZM522.297 46.4062H520.469C520.484 44.5625 520.734 42.8906 521.219 41.3906C521.703 39.8906 522.383 38.6016 523.258 37.5234C524.148 36.4453 525.203 35.6172 526.422 35.0391C527.641 34.4609 529 34.1719 530.5 34.1719C531.719 34.1719 532.82 34.3438 533.805 34.6875C534.789 35.0312 535.633 35.5781 536.336 36.3281C537.055 37.0781 537.602 38.0625 537.977 39.2812C538.367 40.4844 538.562 41.9688 538.562 43.7344V60H532.328V43.6875C532.328 42.5312 532.156 41.6172 531.812 40.9453C531.484 40.2734 531 39.7969 530.359 39.5156C529.734 39.2344 528.961 39.0938 528.039 39.0938C527.086 39.0938 526.25 39.2891 525.531 39.6797C524.828 40.0547 524.234 40.5781 523.75 41.25C523.281 41.9219 522.922 42.6953 522.672 43.5703C522.422 44.4453 522.297 45.3906 522.297 46.4062ZM559.234 54.6094V24H565.469V60H559.844L559.234 54.6094ZM542.945 47.625V47.1328C542.945 45.1953 543.164 43.4375 543.602 41.8594C544.055 40.2656 544.711 38.8984 545.57 37.7578C546.43 36.6172 547.469 35.7344 548.688 35.1094C549.922 34.4844 551.32 34.1719 552.883 34.1719C554.398 34.1719 555.719 34.4766 556.844 35.0859C557.984 35.6953 558.953 36.5625 559.75 37.6875C560.562 38.8125 561.211 40.1484 561.695 41.6953C562.18 43.2266 562.531 44.9141 562.75 46.7578V48.0938C562.531 49.8906 562.18 51.5391 561.695 53.0391C561.211 54.5391 560.562 55.8516 559.75 56.9766C558.953 58.0859 557.984 58.9453 556.844 59.5547C555.703 60.1641 554.367 60.4688 552.836 60.4688C551.289 60.4688 549.898 60.1484 548.664 59.5078C547.445 58.8672 546.406 57.9688 545.547 56.8125C544.703 55.6562 544.055 54.2969 543.602 52.7344C543.164 51.1719 542.945 49.4688 542.945 47.625ZM549.156 47.1328V47.625C549.156 48.7188 549.25 49.7422 549.438 50.6953C549.625 51.6484 549.93 52.4922 550.352 53.2266C550.773 53.9453 551.312 54.5078 551.969 54.9141C552.641 55.3203 553.453 55.5234 554.406 55.5234C555.625 55.5234 556.625 55.2578 557.406 54.7266C558.203 54.1797 558.82 53.4375 559.258 52.5C559.695 51.5469 559.977 50.4766 560.102 49.2891V45.6094C560.039 44.6719 559.875 43.8047 559.609 43.0078C559.359 42.2109 559 41.5234 558.531 40.9453C558.078 40.3672 557.516 39.9141 556.844 39.5859C556.172 39.2578 555.375 39.0938 554.453 39.0938C553.5 39.0938 552.688 39.3047 552.016 39.7266C551.344 40.1328 550.797 40.7031 550.375 41.4375C549.953 42.1719 549.641 43.0234 549.438 43.9922C549.25 44.9609 549.156 46.0078 549.156 47.1328ZM577.258 39.8203V60H571.07V34.6406H576.93L577.258 39.8203ZM584.969 34.4766L584.875 40.2422C584.531 40.1797 584.141 40.1328 583.703 40.1016C583.281 40.0703 582.883 40.0547 582.508 40.0547C581.555 40.0547 580.719 40.1875 580 40.4531C579.281 40.7031 578.68 41.0703 578.195 41.5547C577.727 42.0391 577.367 42.6328 577.117 43.3359C576.867 44.0234 576.727 44.8047 576.695 45.6797L575.359 45.5156C575.359 43.9062 575.523 42.4141 575.852 41.0391C576.18 39.6641 576.656 38.4609 577.281 37.4297C577.906 36.3984 578.688 35.6016 579.625 35.0391C580.578 34.4609 581.672 34.1719 582.906 34.1719C583.25 34.1719 583.617 34.2031 584.008 34.2656C584.414 34.3125 584.734 34.3828 584.969 34.4766ZM601.539 54.6094V42.9141C601.539 42.0547 601.391 41.3125 601.094 40.6875C600.797 40.0625 600.344 39.5781 599.734 39.2344C599.125 38.8906 598.352 38.7188 597.414 38.7188C596.586 38.7188 595.859 38.8594 595.234 39.1406C594.625 39.4219 594.156 39.8203 593.828 40.3359C593.5 40.8359 593.336 41.4141 593.336 42.0703H587.125C587.125 41.0234 587.375 40.0312 587.875 39.0938C588.375 38.1406 589.086 37.2969 590.008 36.5625C590.945 35.8125 592.062 35.2266 593.359 34.8047C594.672 34.3828 596.141 34.1719 597.766 34.1719C599.688 34.1719 601.398 34.5 602.898 35.1562C604.414 35.7969 605.602 36.7656 606.461 38.0625C607.336 39.3594 607.773 40.9922 607.773 42.9609V54.0234C607.773 55.2891 607.852 56.375 608.008 57.2812C608.18 58.1719 608.43 58.9453 608.758 59.6016V60H602.453C602.156 59.3594 601.93 58.5469 601.773 57.5625C601.617 56.5625 601.539 55.5781 601.539 54.6094ZM602.406 44.5547L602.453 48.2344H598.539C597.57 48.2344 596.719 48.3359 595.984 48.5391C595.25 48.7266 594.648 49.0078 594.18 49.3828C593.711 49.7422 593.359 50.1797 593.125 50.6953C592.891 51.1953 592.773 51.7656 592.773 52.4062C592.773 53.0312 592.914 53.5938 593.195 54.0938C593.492 54.5938 593.914 54.9922 594.461 55.2891C595.023 55.5703 595.68 55.7109 596.43 55.7109C597.523 55.7109 598.477 55.4922 599.289 55.0547C600.102 54.6016 600.734 54.0547 601.188 53.4141C601.641 52.7734 601.883 52.1641 601.914 51.5859L603.695 54.2578C603.477 54.8984 603.148 55.5781 602.711 56.2969C602.273 57.0156 601.711 57.6875 601.023 58.3125C600.336 58.9375 599.508 59.4531 598.539 59.8594C597.57 60.2656 596.445 60.4688 595.164 60.4688C593.523 60.4688 592.055 60.1406 590.758 59.4844C589.461 58.8281 588.438 57.9297 587.688 56.7891C586.938 55.6484 586.562 54.3516 586.562 52.8984C586.562 51.5547 586.812 50.3672 587.312 49.3359C587.812 48.3047 588.555 47.4375 589.539 46.7344C590.523 46.0156 591.742 45.4766 593.195 45.1172C594.664 44.7422 596.344 44.5547 598.234 44.5547H602.406ZM237.754 76.9375H243.402C244.684 76.9375 245.766 77.1328 246.648 77.5234C247.539 77.9141 248.215 78.4922 248.676 79.2578C249.145 80.0156 249.379 80.9492 249.379 82.0586C249.379 82.8398 249.219 83.5547 248.898 84.2031C248.586 84.8438 248.133 85.3906 247.539 85.8438C246.953 86.2891 246.25 86.6211 245.43 86.8398L244.797 87.0859H239.488L239.465 85.2461H243.473C244.285 85.2461 244.961 85.1055 245.5 84.8242C246.039 84.5352 246.445 84.1484 246.719 83.6641C246.992 83.1797 247.129 82.6445 247.129 82.0586C247.129 81.4023 247 80.8281 246.742 80.3359C246.484 79.8438 246.078 79.4648 245.523 79.1992C244.977 78.9258 244.27 78.7891 243.402 78.7891H240.016V94H237.754V76.9375ZM247.727 94L243.578 86.2656L245.934 86.2539L250.141 93.8594V94H247.727ZM257.477 94.2344C256.594 94.2344 255.793 94.0859 255.074 93.7891C254.363 93.4844 253.75 93.0586 253.234 92.5117C252.727 91.9648 252.336 91.3164 252.062 90.5664C251.789 89.8164 251.652 88.9961 251.652 88.1055V87.6133C251.652 86.582 251.805 85.6641 252.109 84.8594C252.414 84.0469 252.828 83.3594 253.352 82.7969C253.875 82.2344 254.469 81.8086 255.133 81.5195C255.797 81.2305 256.484 81.0859 257.195 81.0859C258.102 81.0859 258.883 81.2422 259.539 81.5547C260.203 81.8672 260.746 82.3047 261.168 82.8672C261.59 83.4219 261.902 84.0781 262.105 84.8359C262.309 85.5859 262.41 86.4062 262.41 87.2969V88.2695H252.941V86.5H260.242V86.3359C260.211 85.7734 260.094 85.2266 259.891 84.6953C259.695 84.1641 259.383 83.7266 258.953 83.3828C258.523 83.0391 257.938 82.8672 257.195 82.8672C256.703 82.8672 256.25 82.9727 255.836 83.1836C255.422 83.3867 255.066 83.6914 254.77 84.0977C254.473 84.5039 254.242 85 254.078 85.5859C253.914 86.1719 253.832 86.8477 253.832 87.6133V88.1055C253.832 88.707 253.914 89.2734 254.078 89.8047C254.25 90.3281 254.496 90.7891 254.816 91.1875C255.145 91.5859 255.539 91.8984 256 92.125C256.469 92.3516 257 92.4648 257.594 92.4648C258.359 92.4648 259.008 92.3086 259.539 91.9961C260.07 91.6836 260.535 91.2656 260.934 90.7422L262.246 91.7852C261.973 92.1992 261.625 92.5938 261.203 92.9688C260.781 93.3438 260.262 93.6484 259.645 93.8828C259.035 94.1172 258.312 94.2344 257.477 94.2344ZM272.418 91.832V85.3047C272.418 84.8047 272.316 84.3711 272.113 84.0039C271.918 83.6289 271.621 83.3398 271.223 83.1367C270.824 82.9336 270.332 82.832 269.746 82.832C269.199 82.832 268.719 82.9258 268.305 83.1133C267.898 83.3008 267.578 83.5469 267.344 83.8516C267.117 84.1562 267.004 84.4844 267.004 84.8359H264.836C264.836 84.3828 264.953 83.9336 265.188 83.4883C265.422 83.043 265.758 82.6406 266.195 82.2812C266.641 81.9141 267.172 81.625 267.789 81.4141C268.414 81.1953 269.109 81.0859 269.875 81.0859C270.797 81.0859 271.609 81.2422 272.312 81.5547C273.023 81.8672 273.578 82.3398 273.977 82.9727C274.383 83.5977 274.586 84.3828 274.586 85.3281V91.2344C274.586 91.6562 274.621 92.1055 274.691 92.582C274.77 93.0586 274.883 93.4688 275.031 93.8125V94H272.77C272.66 93.75 272.574 93.418 272.512 93.0039C272.449 92.582 272.418 92.1914 272.418 91.832ZM272.793 86.3125L272.816 87.8359H270.625C270.008 87.8359 269.457 87.8867 268.973 87.9883C268.488 88.082 268.082 88.2266 267.754 88.4219C267.426 88.6172 267.176 88.8633 267.004 89.1602C266.832 89.4492 266.746 89.7891 266.746 90.1797C266.746 90.5781 266.836 90.9414 267.016 91.2695C267.195 91.5977 267.465 91.8594 267.824 92.0547C268.191 92.2422 268.641 92.3359 269.172 92.3359C269.836 92.3359 270.422 92.1953 270.93 91.9141C271.438 91.6328 271.84 91.2891 272.137 90.8828C272.441 90.4766 272.605 90.082 272.629 89.6992L273.555 90.7422C273.5 91.0703 273.352 91.4336 273.109 91.832C272.867 92.2305 272.543 92.6133 272.137 92.9805C271.738 93.3398 271.262 93.6406 270.707 93.8828C270.16 94.1172 269.543 94.2344 268.855 94.2344C267.996 94.2344 267.242 94.0664 266.594 93.7305C265.953 93.3945 265.453 92.9453 265.094 92.3828C264.742 91.8125 264.566 91.1758 264.566 90.4727C264.566 89.793 264.699 89.1953 264.965 88.6797C265.23 88.1562 265.613 87.7227 266.113 87.3789C266.613 87.0273 267.215 86.7617 267.918 86.582C268.621 86.4023 269.406 86.3125 270.273 86.3125H272.793ZM283.07 92.4531C283.586 92.4531 284.062 92.3477 284.5 92.1367C284.938 91.9258 285.297 91.6367 285.578 91.2695C285.859 90.8945 286.02 90.4688 286.059 89.9922H288.121C288.082 90.7422 287.828 91.4414 287.359 92.0898C286.898 92.7305 286.293 93.25 285.543 93.6484C284.793 94.0391 283.969 94.2344 283.07 94.2344C282.117 94.2344 281.285 94.0664 280.574 93.7305C279.871 93.3945 279.285 92.9336 278.816 92.3477C278.355 91.7617 278.008 91.0898 277.773 90.332C277.547 89.5664 277.434 88.7578 277.434 87.9062V87.4141C277.434 86.5625 277.547 85.7578 277.773 85C278.008 84.2344 278.355 83.5586 278.816 82.9727C279.285 82.3867 279.871 81.9258 280.574 81.5898C281.285 81.2539 282.117 81.0859 283.07 81.0859C284.062 81.0859 284.93 81.2891 285.672 81.6953C286.414 82.0938 286.996 82.6406 287.418 83.3359C287.848 84.0234 288.082 84.8047 288.121 85.6797H286.059C286.02 85.1562 285.871 84.6836 285.613 84.2617C285.363 83.8398 285.02 83.5039 284.582 83.2539C284.152 82.9961 283.648 82.8672 283.07 82.8672C282.406 82.8672 281.848 83 281.395 83.2656C280.949 83.5234 280.594 83.875 280.328 84.3203C280.07 84.7578 279.883 85.2461 279.766 85.7852C279.656 86.3164 279.602 86.8594 279.602 87.4141V87.9062C279.602 88.4609 279.656 89.0078 279.766 89.5469C279.875 90.0859 280.059 90.5742 280.316 91.0117C280.582 91.4492 280.938 91.8008 281.383 92.0664C281.836 92.3242 282.398 92.4531 283.07 92.4531ZM295.867 81.3203V82.9844H289.012V81.3203H295.867ZM291.332 78.2383H293.5V90.8594C293.5 91.2891 293.566 91.6133 293.699 91.832C293.832 92.0508 294.004 92.1953 294.215 92.2656C294.426 92.3359 294.652 92.3711 294.895 92.3711C295.074 92.3711 295.262 92.3555 295.457 92.3242C295.66 92.2852 295.812 92.2539 295.914 92.2305L295.926 94C295.754 94.0547 295.527 94.1055 295.246 94.1523C294.973 94.207 294.641 94.2344 294.25 94.2344C293.719 94.2344 293.23 94.1289 292.785 93.918C292.34 93.707 291.984 93.3555 291.719 92.8633C291.461 92.3633 291.332 91.6914 291.332 90.8477V78.2383ZM306.953 76.9375V94H304.691V76.9375H306.953ZM314.102 84.6133V86.4648H306.461V84.6133H314.102ZM315.262 76.9375V78.7891H306.461V76.9375H315.262ZM319.492 83.3125V94H317.324V81.3203H319.434L319.492 83.3125ZM323.453 81.25L323.441 83.2656C323.262 83.2266 323.09 83.2031 322.926 83.1953C322.77 83.1797 322.59 83.1719 322.387 83.1719C321.887 83.1719 321.445 83.25 321.062 83.4062C320.68 83.5625 320.355 83.7812 320.09 84.0625C319.824 84.3438 319.613 84.6797 319.457 85.0703C319.309 85.4531 319.211 85.875 319.164 86.3359L318.555 86.6875C318.555 85.9219 318.629 85.2031 318.777 84.5312C318.934 83.8594 319.172 83.2656 319.492 82.75C319.812 82.2266 320.219 81.8203 320.711 81.5312C321.211 81.2344 321.805 81.0859 322.492 81.0859C322.648 81.0859 322.828 81.1055 323.031 81.1445C323.234 81.1758 323.375 81.2109 323.453 81.25ZM324.648 87.8008V87.5312C324.648 86.6172 324.781 85.7695 325.047 84.9883C325.312 84.1992 325.695 83.5156 326.195 82.9375C326.695 82.3516 327.301 81.8984 328.012 81.5781C328.723 81.25 329.52 81.0859 330.402 81.0859C331.293 81.0859 332.094 81.25 332.805 81.5781C333.523 81.8984 334.133 82.3516 334.633 82.9375C335.141 83.5156 335.527 84.1992 335.793 84.9883C336.059 85.7695 336.191 86.6172 336.191 87.5312V87.8008C336.191 88.7148 336.059 89.5625 335.793 90.3438C335.527 91.125 335.141 91.8086 334.633 92.3945C334.133 92.9727 333.527 93.4258 332.816 93.7539C332.113 94.0742 331.316 94.2344 330.426 94.2344C329.535 94.2344 328.734 94.0742 328.023 93.7539C327.312 93.4258 326.703 92.9727 326.195 92.3945C325.695 91.8086 325.312 91.125 325.047 90.3438C324.781 89.5625 324.648 88.7148 324.648 87.8008ZM326.816 87.5312V87.8008C326.816 88.4336 326.891 89.0312 327.039 89.5938C327.188 90.1484 327.41 90.6406 327.707 91.0703C328.012 91.5 328.391 91.8398 328.844 92.0898C329.297 92.332 329.824 92.4531 330.426 92.4531C331.02 92.4531 331.539 92.332 331.984 92.0898C332.438 91.8398 332.812 91.5 333.109 91.0703C333.406 90.6406 333.629 90.1484 333.777 89.5938C333.934 89.0312 334.012 88.4336 334.012 87.8008V87.5312C334.012 86.9062 333.934 86.3164 333.777 85.7617C333.629 85.1992 333.402 84.7031 333.098 84.2734C332.801 83.8359 332.426 83.4922 331.973 83.2422C331.527 82.9922 331.004 82.8672 330.402 82.8672C329.809 82.8672 329.285 82.9922 328.832 83.2422C328.387 83.4922 328.012 83.8359 327.707 84.2734C327.41 84.7031 327.188 85.1992 327.039 85.7617C326.891 86.3164 326.816 86.9062 326.816 87.5312ZM341.078 84.0273V94H338.91V81.3203H340.961L341.078 84.0273ZM340.562 87.1797L339.66 87.1445C339.668 86.2773 339.797 85.4766 340.047 84.7422C340.297 84 340.648 83.3555 341.102 82.8086C341.555 82.2617 342.094 81.8398 342.719 81.543C343.352 81.2383 344.051 81.0859 344.816 81.0859C345.441 81.0859 346.004 81.1719 346.504 81.3438C347.004 81.5078 347.43 81.7734 347.781 82.1406C348.141 82.5078 348.414 82.9844 348.602 83.5703C348.789 84.1484 348.883 84.8555 348.883 85.6914V94H346.703V85.668C346.703 85.0039 346.605 84.4727 346.41 84.0742C346.215 83.668 345.93 83.375 345.555 83.1953C345.18 83.0078 344.719 82.9141 344.172 82.9141C343.633 82.9141 343.141 83.0273 342.695 83.2539C342.258 83.4805 341.879 83.793 341.559 84.1914C341.246 84.5898 341 85.0469 340.82 85.5625C340.648 86.0703 340.562 86.6094 340.562 87.1797ZM357.484 81.3203V82.9844H350.629V81.3203H357.484ZM352.949 78.2383H355.117V90.8594C355.117 91.2891 355.184 91.6133 355.316 91.832C355.449 92.0508 355.621 92.1953 355.832 92.2656C356.043 92.3359 356.27 92.3711 356.512 92.3711C356.691 92.3711 356.879 92.3555 357.074 92.3242C357.277 92.2852 357.43 92.2539 357.531 92.2305L357.543 94C357.371 94.0547 357.145 94.1055 356.863 94.1523C356.59 94.207 356.258 94.2344 355.867 94.2344C355.336 94.2344 354.848 94.1289 354.402 93.918C353.957 93.707 353.602 93.3555 353.336 92.8633C353.078 92.3633 352.949 91.6914 352.949 90.8477V78.2383ZM365.289 94.2344C364.406 94.2344 363.605 94.0859 362.887 93.7891C362.176 93.4844 361.562 93.0586 361.047 92.5117C360.539 91.9648 360.148 91.3164 359.875 90.5664C359.602 89.8164 359.465 88.9961 359.465 88.1055V87.6133C359.465 86.582 359.617 85.6641 359.922 84.8594C360.227 84.0469 360.641 83.3594 361.164 82.7969C361.688 82.2344 362.281 81.8086 362.945 81.5195C363.609 81.2305 364.297 81.0859 365.008 81.0859C365.914 81.0859 366.695 81.2422 367.352 81.5547C368.016 81.8672 368.559 82.3047 368.98 82.8672C369.402 83.4219 369.715 84.0781 369.918 84.8359C370.121 85.5859 370.223 86.4062 370.223 87.2969V88.2695H360.754V86.5H368.055V86.3359C368.023 85.7734 367.906 85.2266 367.703 84.6953C367.508 84.1641 367.195 83.7266 366.766 83.3828C366.336 83.0391 365.75 82.8672 365.008 82.8672C364.516 82.8672 364.062 82.9727 363.648 83.1836C363.234 83.3867 362.879 83.6914 362.582 84.0977C362.285 84.5039 362.055 85 361.891 85.5859C361.727 86.1719 361.645 86.8477 361.645 87.6133V88.1055C361.645 88.707 361.727 89.2734 361.891 89.8047C362.062 90.3281 362.309 90.7891 362.629 91.1875C362.957 91.5859 363.352 91.8984 363.812 92.125C364.281 92.3516 364.812 92.4648 365.406 92.4648C366.172 92.4648 366.82 92.3086 367.352 91.9961C367.883 91.6836 368.348 91.2656 368.746 90.7422L370.059 91.7852C369.785 92.1992 369.438 92.5938 369.016 92.9688C368.594 93.3438 368.074 93.6484 367.457 93.8828C366.848 94.1172 366.125 94.2344 365.289 94.2344ZM374.922 84.0273V94H372.754V81.3203H374.805L374.922 84.0273ZM374.406 87.1797L373.504 87.1445C373.512 86.2773 373.641 85.4766 373.891 84.7422C374.141 84 374.492 83.3555 374.945 82.8086C375.398 82.2617 375.938 81.8398 376.562 81.543C377.195 81.2383 377.895 81.0859 378.66 81.0859C379.285 81.0859 379.848 81.1719 380.348 81.3438C380.848 81.5078 381.273 81.7734 381.625 82.1406C381.984 82.5078 382.258 82.9844 382.445 83.5703C382.633 84.1484 382.727 84.8555 382.727 85.6914V94H380.547V85.668C380.547 85.0039 380.449 84.4727 380.254 84.0742C380.059 83.668 379.773 83.375 379.398 83.1953C379.023 83.0078 378.562 82.9141 378.016 82.9141C377.477 82.9141 376.984 83.0273 376.539 83.2539C376.102 83.4805 375.723 83.793 375.402 84.1914C375.09 84.5898 374.844 85.0469 374.664 85.5625C374.492 86.0703 374.406 86.6094 374.406 87.1797ZM394.012 91.5391V76H396.191V94H394.199L394.012 91.5391ZM385.48 87.8008V87.5547C385.48 86.5859 385.598 85.707 385.832 84.918C386.074 84.1211 386.414 83.4375 386.852 82.8672C387.297 82.2969 387.824 81.8594 388.434 81.5547C389.051 81.2422 389.738 81.0859 390.496 81.0859C391.293 81.0859 391.988 81.2266 392.582 81.5078C393.184 81.7812 393.691 82.1836 394.105 82.7148C394.527 83.2383 394.859 83.8711 395.102 84.6133C395.344 85.3555 395.512 86.1953 395.605 87.1328V88.2109C395.52 89.1406 395.352 89.9766 395.102 90.7188C394.859 91.4609 394.527 92.0938 394.105 92.6172C393.691 93.1406 393.184 93.543 392.582 93.8242C391.98 94.0977 391.277 94.2344 390.473 94.2344C389.73 94.2344 389.051 94.0742 388.434 93.7539C387.824 93.4336 387.297 92.9844 386.852 92.4062C386.414 91.8281 386.074 91.1484 385.832 90.3672C385.598 89.5781 385.48 88.7227 385.48 87.8008ZM387.66 87.5547V87.8008C387.66 88.4336 387.723 89.0273 387.848 89.582C387.98 90.1367 388.184 90.625 388.457 91.0469C388.73 91.4688 389.078 91.8008 389.5 92.043C389.922 92.2773 390.426 92.3945 391.012 92.3945C391.73 92.3945 392.32 92.2422 392.781 91.9375C393.25 91.6328 393.625 91.2305 393.906 90.7305C394.188 90.2305 394.406 89.6875 394.562 89.1016V86.2773C394.469 85.8477 394.332 85.4336 394.152 85.0352C393.98 84.6289 393.754 84.2695 393.473 83.957C393.199 83.6367 392.859 83.3828 392.453 83.1953C392.055 83.0078 391.582 82.9141 391.035 82.9141C390.441 82.9141 389.93 83.0391 389.5 83.2891C389.078 83.5312 388.73 83.8672 388.457 84.2969C388.184 84.7188 387.98 85.2109 387.848 85.7734C387.723 86.3281 387.66 86.9219 387.66 87.5547ZM410.465 94H406.902L406.926 92.1602H410.465C411.684 92.1602 412.699 91.9062 413.512 91.3984C414.324 90.8828 414.934 90.1641 415.34 89.2422C415.754 88.3125 415.961 87.2266 415.961 85.9844V84.9414C415.961 83.9648 415.844 83.0977 415.609 82.3398C415.375 81.5742 415.031 80.9297 414.578 80.4062C414.125 79.875 413.57 79.4727 412.914 79.1992C412.266 78.9258 411.52 78.7891 410.676 78.7891H406.832V76.9375H410.676C411.793 76.9375 412.812 77.125 413.734 77.5C414.656 77.8672 415.449 78.4023 416.113 79.1055C416.785 79.8008 417.301 80.6445 417.66 81.6367C418.02 82.6211 418.199 83.7305 418.199 84.9648V85.9844C418.199 87.2188 418.02 88.332 417.66 89.3242C417.301 90.3086 416.781 91.1484 416.102 91.8438C415.43 92.5391 414.617 93.0742 413.664 93.4492C412.719 93.8164 411.652 94 410.465 94ZM408.109 76.9375V94H405.848V76.9375H408.109ZM426.531 94.2344C425.648 94.2344 424.848 94.0859 424.129 93.7891C423.418 93.4844 422.805 93.0586 422.289 92.5117C421.781 91.9648 421.391 91.3164 421.117 90.5664C420.844 89.8164 420.707 88.9961 420.707 88.1055V87.6133C420.707 86.582 420.859 85.6641 421.164 84.8594C421.469 84.0469 421.883 83.3594 422.406 82.7969C422.93 82.2344 423.523 81.8086 424.188 81.5195C424.852 81.2305 425.539 81.0859 426.25 81.0859C427.156 81.0859 427.938 81.2422 428.594 81.5547C429.258 81.8672 429.801 82.3047 430.223 82.8672C430.645 83.4219 430.957 84.0781 431.16 84.8359C431.363 85.5859 431.465 86.4062 431.465 87.2969V88.2695H421.996V86.5H429.297V86.3359C429.266 85.7734 429.148 85.2266 428.945 84.6953C428.75 84.1641 428.438 83.7266 428.008 83.3828C427.578 83.0391 426.992 82.8672 426.25 82.8672C425.758 82.8672 425.305 82.9727 424.891 83.1836C424.477 83.3867 424.121 83.6914 423.824 84.0977C423.527 84.5039 423.297 85 423.133 85.5859C422.969 86.1719 422.887 86.8477 422.887 87.6133V88.1055C422.887 88.707 422.969 89.2734 423.133 89.8047C423.305 90.3281 423.551 90.7891 423.871 91.1875C424.199 91.5859 424.594 91.8984 425.055 92.125C425.523 92.3516 426.055 92.4648 426.648 92.4648C427.414 92.4648 428.062 92.3086 428.594 91.9961C429.125 91.6836 429.59 91.2656 429.988 90.7422L431.301 91.7852C431.027 92.1992 430.68 92.5938 430.258 92.9688C429.836 93.3438 429.316 93.6484 428.699 93.8828C428.09 94.1172 427.367 94.2344 426.531 94.2344ZM437.688 92.043L441.156 81.3203H443.371L438.812 94H437.359L437.688 92.043ZM434.793 81.3203L438.367 92.1016L438.613 94H437.16L432.566 81.3203H434.793ZM450.555 94.2344C449.672 94.2344 448.871 94.0859 448.152 93.7891C447.441 93.4844 446.828 93.0586 446.312 92.5117C445.805 91.9648 445.414 91.3164 445.141 90.5664C444.867 89.8164 444.73 88.9961 444.73 88.1055V87.6133C444.73 86.582 444.883 85.6641 445.188 84.8594C445.492 84.0469 445.906 83.3594 446.43 82.7969C446.953 82.2344 447.547 81.8086 448.211 81.5195C448.875 81.2305 449.562 81.0859 450.273 81.0859C451.18 81.0859 451.961 81.2422 452.617 81.5547C453.281 81.8672 453.824 82.3047 454.246 82.8672C454.668 83.4219 454.98 84.0781 455.184 84.8359C455.387 85.5859 455.488 86.4062 455.488 87.2969V88.2695H446.02V86.5H453.32V86.3359C453.289 85.7734 453.172 85.2266 452.969 84.6953C452.773 84.1641 452.461 83.7266 452.031 83.3828C451.602 83.0391 451.016 82.8672 450.273 82.8672C449.781 82.8672 449.328 82.9727 448.914 83.1836C448.5 83.3867 448.145 83.6914 447.848 84.0977C447.551 84.5039 447.32 85 447.156 85.5859C446.992 86.1719 446.91 86.8477 446.91 87.6133V88.1055C446.91 88.707 446.992 89.2734 447.156 89.8047C447.328 90.3281 447.574 90.7891 447.895 91.1875C448.223 91.5859 448.617 91.8984 449.078 92.125C449.547 92.3516 450.078 92.4648 450.672 92.4648C451.438 92.4648 452.086 92.3086 452.617 91.9961C453.148 91.6836 453.613 91.2656 454.012 90.7422L455.324 91.7852C455.051 92.1992 454.703 92.5938 454.281 92.9688C453.859 93.3438 453.34 93.6484 452.723 93.8828C452.113 94.1172 451.391 94.2344 450.555 94.2344ZM460.375 76V94H458.195V76H460.375ZM463.281 87.8008V87.5312C463.281 86.6172 463.414 85.7695 463.68 84.9883C463.945 84.1992 464.328 83.5156 464.828 82.9375C465.328 82.3516 465.934 81.8984 466.645 81.5781C467.355 81.25 468.152 81.0859 469.035 81.0859C469.926 81.0859 470.727 81.25 471.438 81.5781C472.156 81.8984 472.766 82.3516 473.266 82.9375C473.773 83.5156 474.16 84.1992 474.426 84.9883C474.691 85.7695 474.824 86.6172 474.824 87.5312V87.8008C474.824 88.7148 474.691 89.5625 474.426 90.3438C474.16 91.125 473.773 91.8086 473.266 92.3945C472.766 92.9727 472.16 93.4258 471.449 93.7539C470.746 94.0742 469.949 94.2344 469.059 94.2344C468.168 94.2344 467.367 94.0742 466.656 93.7539C465.945 93.4258 465.336 92.9727 464.828 92.3945C464.328 91.8086 463.945 91.125 463.68 90.3438C463.414 89.5625 463.281 88.7148 463.281 87.8008ZM465.449 87.5312V87.8008C465.449 88.4336 465.523 89.0312 465.672 89.5938C465.82 90.1484 466.043 90.6406 466.34 91.0703C466.645 91.5 467.023 91.8398 467.477 92.0898C467.93 92.332 468.457 92.4531 469.059 92.4531C469.652 92.4531 470.172 92.332 470.617 92.0898C471.07 91.8398 471.445 91.5 471.742 91.0703C472.039 90.6406 472.262 90.1484 472.41 89.5938C472.566 89.0312 472.645 88.4336 472.645 87.8008V87.5312C472.645 86.9062 472.566 86.3164 472.41 85.7617C472.262 85.1992 472.035 84.7031 471.73 84.2734C471.434 83.8359 471.059 83.4922 470.605 83.2422C470.16 82.9922 469.637 82.8672 469.035 82.8672C468.441 82.8672 467.918 82.9922 467.465 83.2422C467.02 83.4922 466.645 83.8359 466.34 84.2734C466.043 84.7031 465.82 85.1992 465.672 85.7617C465.523 86.3164 465.449 86.9062 465.449 87.5312ZM479.711 83.7578V98.875H477.531V81.3203H479.523L479.711 83.7578ZM488.254 87.5547V87.8008C488.254 88.7227 488.145 89.5781 487.926 90.3672C487.707 91.1484 487.387 91.8281 486.965 92.4062C486.551 92.9844 486.039 93.4336 485.43 93.7539C484.82 94.0742 484.121 94.2344 483.332 94.2344C482.527 94.2344 481.816 94.1016 481.199 93.8359C480.582 93.5703 480.059 93.1836 479.629 92.6758C479.199 92.168 478.855 91.5586 478.598 90.8477C478.348 90.1367 478.176 89.3359 478.082 88.4453V87.1328C478.176 86.1953 478.352 85.3555 478.609 84.6133C478.867 83.8711 479.207 83.2383 479.629 82.7148C480.059 82.1836 480.578 81.7812 481.188 81.5078C481.797 81.2266 482.5 81.0859 483.297 81.0859C484.094 81.0859 484.801 81.2422 485.418 81.5547C486.035 81.8594 486.555 82.2969 486.977 82.8672C487.398 83.4375 487.715 84.1211 487.926 84.918C488.145 85.707 488.254 86.5859 488.254 87.5547ZM486.074 87.8008V87.5547C486.074 86.9219 486.008 86.3281 485.875 85.7734C485.742 85.2109 485.535 84.7188 485.254 84.2969C484.98 83.8672 484.629 83.5312 484.199 83.2891C483.77 83.0391 483.258 82.9141 482.664 82.9141C482.117 82.9141 481.641 83.0078 481.234 83.1953C480.836 83.3828 480.496 83.6367 480.215 83.957C479.934 84.2695 479.703 84.6289 479.523 85.0352C479.352 85.4336 479.223 85.8477 479.137 86.2773V89.3125C479.293 89.8594 479.512 90.375 479.793 90.8594C480.074 91.3359 480.449 91.7227 480.918 92.0195C481.387 92.3086 481.977 92.4531 482.688 92.4531C483.273 92.4531 483.777 92.332 484.199 92.0898C484.629 91.8398 484.98 91.5 485.254 91.0703C485.535 90.6406 485.742 90.1484 485.875 89.5938C486.008 89.0312 486.074 88.4336 486.074 87.8008ZM496.281 94.2344C495.398 94.2344 494.598 94.0859 493.879 93.7891C493.168 93.4844 492.555 93.0586 492.039 92.5117C491.531 91.9648 491.141 91.3164 490.867 90.5664C490.594 89.8164 490.457 88.9961 490.457 88.1055V87.6133C490.457 86.582 490.609 85.6641 490.914 84.8594C491.219 84.0469 491.633 83.3594 492.156 82.7969C492.68 82.2344 493.273 81.8086 493.938 81.5195C494.602 81.2305 495.289 81.0859 496 81.0859C496.906 81.0859 497.688 81.2422 498.344 81.5547C499.008 81.8672 499.551 82.3047 499.973 82.8672C500.395 83.4219 500.707 84.0781 500.91 84.8359C501.113 85.5859 501.215 86.4062 501.215 87.2969V88.2695H491.746V86.5H499.047V86.3359C499.016 85.7734 498.898 85.2266 498.695 84.6953C498.5 84.1641 498.188 83.7266 497.758 83.3828C497.328 83.0391 496.742 82.8672 496 82.8672C495.508 82.8672 495.055 82.9727 494.641 83.1836C494.227 83.3867 493.871 83.6914 493.574 84.0977C493.277 84.5039 493.047 85 492.883 85.5859C492.719 86.1719 492.637 86.8477 492.637 87.6133V88.1055C492.637 88.707 492.719 89.2734 492.883 89.8047C493.055 90.3281 493.301 90.7891 493.621 91.1875C493.949 91.5859 494.344 91.8984 494.805 92.125C495.273 92.3516 495.805 92.4648 496.398 92.4648C497.164 92.4648 497.812 92.3086 498.344 91.9961C498.875 91.6836 499.34 91.2656 499.738 90.7422L501.051 91.7852C500.777 92.1992 500.43 92.5938 500.008 92.9688C499.586 93.3438 499.066 93.6484 498.449 93.8828C497.84 94.1172 497.117 94.2344 496.281 94.2344ZM505.914 83.3125V94H503.746V81.3203H505.855L505.914 83.3125ZM509.875 81.25L509.863 83.2656C509.684 83.2266 509.512 83.2031 509.348 83.1953C509.191 83.1797 509.012 83.1719 508.809 83.1719C508.309 83.1719 507.867 83.25 507.484 83.4062C507.102 83.5625 506.777 83.7812 506.512 84.0625C506.246 84.3438 506.035 84.6797 505.879 85.0703C505.73 85.4531 505.633 85.875 505.586 86.3359L504.977 86.6875C504.977 85.9219 505.051 85.2031 505.199 84.5312C505.355 83.8594 505.594 83.2656 505.914 82.75C506.234 82.2266 506.641 81.8203 507.133 81.5312C507.633 81.2344 508.227 81.0859 508.914 81.0859C509.07 81.0859 509.25 81.1055 509.453 81.1445C509.656 81.1758 509.797 81.2109 509.875 81.25Z" fill="white"/>
<defs>
<linearGradient id="paint0_linear_1_3" x1="415.997" y1="-16.7711" x2="428.713" y2="430.31" gradientUnits="userSpaceOnUse">
<stop stop-color="#250042"/>
<stop offset="1" stop-color="#000AFF" stop-opacity="0"/>
<stop offset="1" stop-color="#000AF5" stop-opacity="0.0690513"/>
<stop offset="1" stop-color="#0C07C2" stop-opacity="0.321011"/>
</linearGradient>
</defs>
</svg>
