<svg width="694" height="83" viewBox="0 0 694 83" fill="none" xmlns="http://www.w3.org/2000/svg">
<rect width="694" height="83" fill="url(#paint0_linear_1_3)"/>
<path d="M125.82 45.5547H117.031V40.4922H125.82C127.258 40.4922 128.422 40.2578 129.312 39.7891C130.219 39.3047 130.883 38.6484 131.305 37.8203C131.727 36.9766 131.938 36.0156 131.938 34.9375C131.938 33.8906 131.727 32.9141 131.305 32.0078C130.883 31.1016 130.219 30.3672 129.312 29.8047C128.422 29.2422 127.258 28.9609 125.82 28.9609H119.141V58H112.695V23.875H125.82C128.477 23.875 130.742 24.3516 132.617 25.3047C134.508 26.2422 135.945 27.5469 136.93 29.2188C137.93 30.875 138.43 32.7656 138.43 34.8906C138.43 37.0938 137.93 38.9922 136.93 40.5859C135.945 42.1797 134.508 43.4062 132.617 44.2656C130.742 45.125 128.477 45.5547 125.82 45.5547ZM149.211 37.8203V58H143.023V32.6406H148.883L149.211 37.8203ZM156.922 32.4766L156.828 38.2422C156.484 38.1797 156.094 38.1328 155.656 38.1016C155.234 38.0703 154.836 38.0547 154.461 38.0547C153.508 38.0547 152.672 38.1875 151.953 38.4531C151.234 38.7031 150.633 39.0703 150.148 39.5547C149.68 40.0391 149.32 40.6328 149.07 41.3359C148.82 42.0234 148.68 42.8047 148.648 43.6797L147.312 43.5156C147.312 41.9062 147.477 40.4141 147.805 39.0391C148.133 37.6641 148.609 36.4609 149.234 35.4297C149.859 34.3984 150.641 33.6016 151.578 33.0391C152.531 32.4609 153.625 32.1719 154.859 32.1719C155.203 32.1719 155.57 32.2031 155.961 32.2656C156.367 32.3125 156.688 32.3828 156.922 32.4766ZM158.562 45.5781V45.0859C158.562 43.2266 158.828 41.5156 159.359 39.9531C159.891 38.375 160.664 37.0078 161.68 35.8516C162.695 34.6953 163.938 33.7969 165.406 33.1562C166.875 32.5 168.547 32.1719 170.422 32.1719C172.328 32.1719 174.016 32.5 175.484 33.1562C176.969 33.7969 178.219 34.6953 179.234 35.8516C180.25 37.0078 181.023 38.375 181.555 39.9531C182.086 41.5156 182.352 43.2266 182.352 45.0859V45.5781C182.352 47.4219 182.086 49.1328 181.555 50.7109C181.023 52.2734 180.25 53.6406 179.234 54.8125C178.219 55.9688 176.977 56.8672 175.508 57.5078C174.039 58.1484 172.359 58.4688 170.469 58.4688C168.594 58.4688 166.914 58.1484 165.43 57.5078C163.945 56.8672 162.695 55.9688 161.68 54.8125C160.664 53.6406 159.891 52.2734 159.359 50.7109C158.828 49.1328 158.562 47.4219 158.562 45.5781ZM164.75 45.0859V45.5781C164.75 46.6875 164.859 47.7266 165.078 48.6953C165.297 49.6641 165.633 50.5156 166.086 51.25C166.539 51.9844 167.125 52.5625 167.844 52.9844C168.578 53.3906 169.453 53.5938 170.469 53.5938C171.469 53.5938 172.328 53.3906 173.047 52.9844C173.766 52.5625 174.352 51.9844 174.805 51.25C175.273 50.5156 175.617 49.6641 175.836 48.6953C176.055 47.7266 176.164 46.6875 176.164 45.5781V45.0859C176.164 43.9922 176.055 42.9688 175.836 42.0156C175.617 41.0469 175.273 40.1953 174.805 39.4609C174.352 38.7109 173.758 38.125 173.023 37.7031C172.305 37.2656 171.438 37.0469 170.422 37.0469C169.422 37.0469 168.562 37.2656 167.844 37.7031C167.125 38.125 166.539 38.7109 166.086 39.4609C165.633 40.1953 165.297 41.0469 165.078 42.0156C164.859 42.9688 164.75 43.9922 164.75 45.0859ZM193.039 21.9766V58H186.852V21.9766H193.039ZM208.93 32.6406L197.891 45.0391L191.914 51.1094L189.945 46.3047L194.562 40.4922L201.453 32.6406H208.93ZM202.602 58L194.75 46.1875L198.875 42.1797L209.773 58H202.602ZM211.109 45.5781V45.0859C211.109 43.2266 211.375 41.5156 211.906 39.9531C212.438 38.375 213.211 37.0078 214.227 35.8516C215.242 34.6953 216.484 33.7969 217.953 33.1562C219.422 32.5 221.094 32.1719 222.969 32.1719C224.875 32.1719 226.562 32.5 228.031 33.1562C229.516 33.7969 230.766 34.6953 231.781 35.8516C232.797 37.0078 233.57 38.375 234.102 39.9531C234.633 41.5156 234.898 43.2266 234.898 45.0859V45.5781C234.898 47.4219 234.633 49.1328 234.102 50.7109C233.57 52.2734 232.797 53.6406 231.781 54.8125C230.766 55.9688 229.523 56.8672 228.055 57.5078C226.586 58.1484 224.906 58.4688 223.016 58.4688C221.141 58.4688 219.461 58.1484 217.977 57.5078C216.492 56.8672 215.242 55.9688 214.227 54.8125C213.211 53.6406 212.438 52.2734 211.906 50.7109C211.375 49.1328 211.109 47.4219 211.109 45.5781ZM217.297 45.0859V45.5781C217.297 46.6875 217.406 47.7266 217.625 48.6953C217.844 49.6641 218.18 50.5156 218.633 51.25C219.086 51.9844 219.672 52.5625 220.391 52.9844C221.125 53.3906 222 53.5938 223.016 53.5938C224.016 53.5938 224.875 53.3906 225.594 52.9844C226.312 52.5625 226.898 51.9844 227.352 51.25C227.82 50.5156 228.164 49.6641 228.383 48.6953C228.602 47.7266 228.711 46.6875 228.711 45.5781V45.0859C228.711 43.9922 228.602 42.9688 228.383 42.0156C228.164 41.0469 227.82 40.1953 227.352 39.4609C226.898 38.7109 226.305 38.125 225.57 37.7031C224.852 37.2656 223.984 37.0469 222.969 37.0469C221.969 37.0469 221.109 37.2656 220.391 37.7031C219.672 38.125 219.086 38.7109 218.633 39.4609C218.18 40.1953 217.844 41.0469 217.625 42.0156C217.406 42.9688 217.297 43.9922 217.297 45.0859ZM245.586 37.5156V67.75H239.375V32.6406H245.117L245.586 37.5156ZM261.875 45.0625V45.5547C261.875 47.3984 261.656 49.1094 261.219 50.6875C260.797 52.25 260.172 53.6172 259.344 54.7891C258.516 55.9453 257.484 56.8516 256.25 57.5078C255.031 58.1484 253.625 58.4688 252.031 58.4688C250.469 58.4688 249.109 58.1719 247.953 57.5781C246.797 56.9688 245.82 56.1094 245.023 55C244.227 53.8906 243.586 52.6016 243.102 51.1328C242.633 49.6484 242.281 48.0312 242.047 46.2812V44.7109C242.281 42.8516 242.633 41.1641 243.102 39.6484C243.586 38.1172 244.227 36.7969 245.023 35.6875C245.82 34.5625 246.789 33.6953 247.93 33.0859C249.086 32.4766 250.438 32.1719 251.984 32.1719C253.594 32.1719 255.008 32.4766 256.227 33.0859C257.461 33.6953 258.5 34.5703 259.344 35.7109C260.188 36.8516 260.82 38.2109 261.242 39.7891C261.664 41.3672 261.875 43.125 261.875 45.0625ZM255.664 45.5547V45.0625C255.664 43.9375 255.562 42.8984 255.359 41.9453C255.156 40.9766 254.844 40.1328 254.422 39.4141C254 38.6797 253.453 38.1094 252.781 37.7031C252.109 37.2969 251.297 37.0938 250.344 37.0938C249.391 37.0938 248.57 37.25 247.883 37.5625C247.195 37.875 246.633 38.3203 246.195 38.8984C245.758 39.4766 245.414 40.1641 245.164 40.9609C244.93 41.7422 244.773 42.6094 244.695 43.5625V47.4531C244.836 48.6094 245.109 49.6484 245.516 50.5703C245.922 51.4922 246.516 52.2266 247.297 52.7734C248.094 53.3203 249.125 53.5938 250.391 53.5938C251.344 53.5938 252.156 53.3828 252.828 52.9609C253.5 52.5391 254.047 51.9609 254.469 51.2266C254.891 50.4766 255.195 49.6172 255.383 48.6484C255.57 47.6797 255.664 46.6484 255.664 45.5547ZM277.789 58.4688C275.867 58.4688 274.141 58.1562 272.609 57.5312C271.078 56.9062 269.773 56.0391 268.695 54.9297C267.633 53.8047 266.812 52.5 266.234 51.0156C265.672 49.5156 265.391 47.9062 265.391 46.1875V45.25C265.391 43.2969 265.672 41.5234 266.234 39.9297C266.797 38.3203 267.594 36.9375 268.625 35.7812C269.656 34.625 270.891 33.7344 272.328 33.1094C273.766 32.4844 275.352 32.1719 277.086 32.1719C278.883 32.1719 280.469 32.4766 281.844 33.0859C283.219 33.6797 284.367 34.5234 285.289 35.6172C286.211 36.7109 286.906 38.0234 287.375 39.5547C287.844 41.0703 288.078 42.75 288.078 44.5938V47.1953H268.203V42.9297H281.984V42.4609C281.953 41.4766 281.766 40.5781 281.422 39.7656C281.078 38.9375 280.547 38.2812 279.828 37.7969C279.109 37.2969 278.18 37.0469 277.039 37.0469C276.117 37.0469 275.312 37.25 274.625 37.6562C273.953 38.0469 273.391 38.6094 272.938 39.3438C272.5 40.0625 272.172 40.9219 271.953 41.9219C271.734 42.9219 271.625 44.0312 271.625 45.25V46.1875C271.625 47.25 271.766 48.2344 272.047 49.1406C272.344 50.0469 272.773 50.8359 273.336 51.5078C273.914 52.1641 274.602 52.6797 275.398 53.0547C276.211 53.4141 277.133 53.5938 278.164 53.5938C279.461 53.5938 280.633 53.3438 281.68 52.8438C282.742 52.3281 283.664 51.5703 284.445 50.5703L287.562 53.8047C287.031 54.5859 286.312 55.3359 285.406 56.0547C284.516 56.7734 283.438 57.3594 282.172 57.8125C280.906 58.25 279.445 58.4688 277.789 58.4688ZM304.227 32.6406V37.0938H289.695V32.6406H304.227ZM293.586 26.4062H299.797V50.6875C299.797 51.4375 299.898 52.0156 300.102 52.4219C300.305 52.8281 300.609 53.1016 301.016 53.2422C301.422 53.3828 301.906 53.4531 302.469 53.4531C302.875 53.4531 303.25 53.4297 303.594 53.3828C303.938 53.3359 304.227 53.2891 304.461 53.2422L304.484 57.8828C303.969 58.0547 303.383 58.1953 302.727 58.3047C302.086 58.4141 301.359 58.4688 300.547 58.4688C299.156 58.4688 297.938 58.2344 296.891 57.7656C295.844 57.2812 295.031 56.5078 294.453 55.4453C293.875 54.3672 293.586 52.9453 293.586 51.1797V26.4062ZM322.297 51.0625C322.297 50.5312 322.156 50.0547 321.875 49.6328C321.594 49.2109 321.062 48.8281 320.281 48.4844C319.516 48.125 318.391 47.7891 316.906 47.4766C315.594 47.1953 314.383 46.8438 313.273 46.4219C312.164 46 311.211 45.4922 310.414 44.8984C309.617 44.2891 308.992 43.5781 308.539 42.7656C308.102 41.9375 307.883 40.9844 307.883 39.9062C307.883 38.8594 308.109 37.875 308.562 36.9531C309.016 36.0156 309.672 35.1953 310.531 34.4922C311.391 33.7734 312.438 33.2109 313.672 32.8047C314.906 32.3828 316.297 32.1719 317.844 32.1719C320 32.1719 321.852 32.5234 323.398 33.2266C324.961 33.9297 326.156 34.8984 326.984 36.1328C327.812 37.3516 328.227 38.7266 328.227 40.2578H322.039C322.039 39.5859 321.883 38.9766 321.57 38.4297C321.273 37.8828 320.812 37.4453 320.188 37.1172C319.562 36.7734 318.773 36.6016 317.82 36.6016C316.961 36.6016 316.234 36.7422 315.641 37.0234C315.062 37.3047 314.625 37.6719 314.328 38.125C314.031 38.5781 313.883 39.0781 313.883 39.625C313.883 40.0312 313.961 40.3984 314.117 40.7266C314.289 41.0391 314.562 41.3281 314.938 41.5938C315.312 41.8594 315.82 42.1016 316.461 42.3203C317.117 42.5391 317.922 42.75 318.875 42.9531C320.766 43.3281 322.414 43.8281 323.82 44.4531C325.242 45.0625 326.352 45.875 327.148 46.8906C327.945 47.9062 328.344 49.2031 328.344 50.7812C328.344 51.9062 328.102 52.9375 327.617 53.875C327.133 54.7969 326.43 55.6016 325.508 56.2891C324.586 56.9766 323.484 57.5156 322.203 57.9062C320.922 58.2812 319.477 58.4688 317.867 58.4688C315.539 58.4688 313.57 58.0547 311.961 57.2266C310.352 56.3828 309.133 55.3203 308.305 54.0391C307.477 52.7422 307.062 51.3984 307.062 50.0078H312.992C313.039 50.9922 313.305 51.7812 313.789 52.375C314.273 52.9688 314.883 53.3984 315.617 53.6641C316.367 53.9141 317.156 54.0391 317.984 54.0391C318.922 54.0391 319.711 53.9141 320.352 53.6641C320.992 53.3984 321.477 53.0469 321.805 52.6094C322.133 52.1562 322.297 51.6406 322.297 51.0625ZM359.047 29.0547L349.32 58H342.5L355.25 23.875H359.609L359.047 29.0547ZM367.18 58L357.406 29.0547L356.82 23.875H361.203L374.023 58H367.18ZM366.734 45.3203V50.4062H348.43V45.3203H366.734ZM383.633 22V58H377.422V22H383.633ZM400.93 58.4688C399.008 58.4688 397.281 58.1562 395.75 57.5312C394.219 56.9062 392.914 56.0391 391.836 54.9297C390.773 53.8047 389.953 52.5 389.375 51.0156C388.812 49.5156 388.531 47.9062 388.531 46.1875V45.25C388.531 43.2969 388.812 41.5234 389.375 39.9297C389.938 38.3203 390.734 36.9375 391.766 35.7812C392.797 34.625 394.031 33.7344 395.469 33.1094C396.906 32.4844 398.492 32.1719 400.227 32.1719C402.023 32.1719 403.609 32.4766 404.984 33.0859C406.359 33.6797 407.508 34.5234 408.43 35.6172C409.352 36.7109 410.047 38.0234 410.516 39.5547C410.984 41.0703 411.219 42.75 411.219 44.5938V47.1953H391.344V42.9297H405.125V42.4609C405.094 41.4766 404.906 40.5781 404.562 39.7656C404.219 38.9375 403.688 38.2812 402.969 37.7969C402.25 37.2969 401.32 37.0469 400.18 37.0469C399.258 37.0469 398.453 37.25 397.766 37.6562C397.094 38.0469 396.531 38.6094 396.078 39.3438C395.641 40.0625 395.312 40.9219 395.094 41.9219C394.875 42.9219 394.766 44.0312 394.766 45.25V46.1875C394.766 47.25 394.906 48.2344 395.188 49.1406C395.484 50.0469 395.914 50.8359 396.477 51.5078C397.055 52.1641 397.742 52.6797 398.539 53.0547C399.352 53.4141 400.273 53.5938 401.305 53.5938C402.602 53.5938 403.773 53.3438 404.82 52.8438C405.883 52.3281 406.805 51.5703 407.586 50.5703L410.703 53.8047C410.172 54.5859 409.453 55.3359 408.547 56.0547C407.656 56.7734 406.578 57.3594 405.312 57.8125C404.047 58.25 402.586 58.4688 400.93 58.4688ZM421.555 21.9766V58H415.367V21.9766H421.555ZM437.445 32.6406L426.406 45.0391L420.43 51.1094L418.461 46.3047L423.078 40.4922L429.969 32.6406H437.445ZM431.117 58L423.266 46.1875L427.391 42.1797L438.289 58H431.117ZM454.672 51.0625C454.672 50.5312 454.531 50.0547 454.25 49.6328C453.969 49.2109 453.438 48.8281 452.656 48.4844C451.891 48.125 450.766 47.7891 449.281 47.4766C447.969 47.1953 446.758 46.8438 445.648 46.4219C444.539 46 443.586 45.4922 442.789 44.8984C441.992 44.2891 441.367 43.5781 440.914 42.7656C440.477 41.9375 440.258 40.9844 440.258 39.9062C440.258 38.8594 440.484 37.875 440.938 36.9531C441.391 36.0156 442.047 35.1953 442.906 34.4922C443.766 33.7734 444.812 33.2109 446.047 32.8047C447.281 32.3828 448.672 32.1719 450.219 32.1719C452.375 32.1719 454.227 32.5234 455.773 33.2266C457.336 33.9297 458.531 34.8984 459.359 36.1328C460.188 37.3516 460.602 38.7266 460.602 40.2578H454.414C454.414 39.5859 454.258 38.9766 453.945 38.4297C453.648 37.8828 453.188 37.4453 452.562 37.1172C451.938 36.7734 451.148 36.6016 450.195 36.6016C449.336 36.6016 448.609 36.7422 448.016 37.0234C447.438 37.3047 447 37.6719 446.703 38.125C446.406 38.5781 446.258 39.0781 446.258 39.625C446.258 40.0312 446.336 40.3984 446.492 40.7266C446.664 41.0391 446.938 41.3281 447.312 41.5938C447.688 41.8594 448.195 42.1016 448.836 42.3203C449.492 42.5391 450.297 42.75 451.25 42.9531C453.141 43.3281 454.789 43.8281 456.195 44.4531C457.617 45.0625 458.727 45.875 459.523 46.8906C460.32 47.9062 460.719 49.2031 460.719 50.7812C460.719 51.9062 460.477 52.9375 459.992 53.875C459.508 54.7969 458.805 55.6016 457.883 56.2891C456.961 56.9766 455.859 57.5156 454.578 57.9062C453.297 58.2812 451.852 58.4688 450.242 58.4688C447.914 58.4688 445.945 58.0547 444.336 57.2266C442.727 56.3828 441.508 55.3203 440.68 54.0391C439.852 52.7422 439.438 51.3984 439.438 50.0078H445.367C445.414 50.9922 445.68 51.7812 446.164 52.375C446.648 52.9688 447.258 53.3984 447.992 53.6641C448.742 53.9141 449.531 54.0391 450.359 54.0391C451.297 54.0391 452.086 53.9141 452.727 53.6641C453.367 53.3984 453.852 53.0469 454.18 52.6094C454.508 52.1562 454.672 51.6406 454.672 51.0625ZM479.398 52.6094V40.9141C479.398 40.0547 479.25 39.3125 478.953 38.6875C478.656 38.0625 478.203 37.5781 477.594 37.2344C476.984 36.8906 476.211 36.7188 475.273 36.7188C474.445 36.7188 473.719 36.8594 473.094 37.1406C472.484 37.4219 472.016 37.8203 471.688 38.3359C471.359 38.8359 471.195 39.4141 471.195 40.0703H464.984C464.984 39.0234 465.234 38.0312 465.734 37.0938C466.234 36.1406 466.945 35.2969 467.867 34.5625C468.805 33.8125 469.922 33.2266 471.219 32.8047C472.531 32.3828 474 32.1719 475.625 32.1719C477.547 32.1719 479.258 32.5 480.758 33.1562C482.273 33.7969 483.461 34.7656 484.32 36.0625C485.195 37.3594 485.633 38.9922 485.633 40.9609V52.0234C485.633 53.2891 485.711 54.375 485.867 55.2812C486.039 56.1719 486.289 56.9453 486.617 57.6016V58H480.312C480.016 57.3594 479.789 56.5469 479.633 55.5625C479.477 54.5625 479.398 53.5781 479.398 52.6094ZM480.266 42.5547L480.312 46.2344H476.398C475.43 46.2344 474.578 46.3359 473.844 46.5391C473.109 46.7266 472.508 47.0078 472.039 47.3828C471.57 47.7422 471.219 48.1797 470.984 48.6953C470.75 49.1953 470.633 49.7656 470.633 50.4062C470.633 51.0312 470.773 51.5938 471.055 52.0938C471.352 52.5938 471.773 52.9922 472.32 53.2891C472.883 53.5703 473.539 53.7109 474.289 53.7109C475.383 53.7109 476.336 53.4922 477.148 53.0547C477.961 52.6016 478.594 52.0547 479.047 51.4141C479.5 50.7734 479.742 50.1641 479.773 49.5859L481.555 52.2578C481.336 52.8984 481.008 53.5781 480.57 54.2969C480.133 55.0156 479.57 55.6875 478.883 56.3125C478.195 56.9375 477.367 57.4531 476.398 57.8594C475.43 58.2656 474.305 58.4688 473.023 58.4688C471.383 58.4688 469.914 58.1406 468.617 57.4844C467.32 56.8281 466.297 55.9297 465.547 54.7891C464.797 53.6484 464.422 52.3516 464.422 50.8984C464.422 49.5547 464.672 48.3672 465.172 47.3359C465.672 46.3047 466.414 45.4375 467.398 44.7344C468.383 44.0156 469.602 43.4766 471.055 43.1172C472.523 42.7422 474.203 42.5547 476.094 42.5547H480.266ZM497.281 38.0547V58H491.094V32.6406H496.906L497.281 38.0547ZM496.297 44.4062H494.469C494.484 42.5625 494.734 40.8906 495.219 39.3906C495.703 37.8906 496.383 36.6016 497.258 35.5234C498.148 34.4453 499.203 33.6172 500.422 33.0391C501.641 32.4609 503 32.1719 504.5 32.1719C505.719 32.1719 506.82 32.3438 507.805 32.6875C508.789 33.0312 509.633 33.5781 510.336 34.3281C511.055 35.0781 511.602 36.0625 511.977 37.2812C512.367 38.4844 512.562 39.9688 512.562 41.7344V58H506.328V41.6875C506.328 40.5312 506.156 39.6172 505.812 38.9453C505.484 38.2734 505 37.7969 504.359 37.5156C503.734 37.2344 502.961 37.0938 502.039 37.0938C501.086 37.0938 500.25 37.2891 499.531 37.6797C498.828 38.0547 498.234 38.5781 497.75 39.25C497.281 39.9219 496.922 40.6953 496.672 41.5703C496.422 42.4453 496.297 43.3906 496.297 44.4062ZM533.234 52.6094V22H539.469V58H533.844L533.234 52.6094ZM516.945 45.625V45.1328C516.945 43.1953 517.164 41.4375 517.602 39.8594C518.055 38.2656 518.711 36.8984 519.57 35.7578C520.43 34.6172 521.469 33.7344 522.688 33.1094C523.922 32.4844 525.32 32.1719 526.883 32.1719C528.398 32.1719 529.719 32.4766 530.844 33.0859C531.984 33.6953 532.953 34.5625 533.75 35.6875C534.562 36.8125 535.211 38.1484 535.695 39.6953C536.18 41.2266 536.531 42.9141 536.75 44.7578V46.0938C536.531 47.8906 536.18 49.5391 535.695 51.0391C535.211 52.5391 534.562 53.8516 533.75 54.9766C532.953 56.0859 531.984 56.9453 530.844 57.5547C529.703 58.1641 528.367 58.4688 526.836 58.4688C525.289 58.4688 523.898 58.1484 522.664 57.5078C521.445 56.8672 520.406 55.9688 519.547 54.8125C518.703 53.6562 518.055 52.2969 517.602 50.7344C517.164 49.1719 516.945 47.4688 516.945 45.625ZM523.156 45.1328V45.625C523.156 46.7188 523.25 47.7422 523.438 48.6953C523.625 49.6484 523.93 50.4922 524.352 51.2266C524.773 51.9453 525.312 52.5078 525.969 52.9141C526.641 53.3203 527.453 53.5234 528.406 53.5234C529.625 53.5234 530.625 53.2578 531.406 52.7266C532.203 52.1797 532.82 51.4375 533.258 50.5C533.695 49.5469 533.977 48.4766 534.102 47.2891V43.6094C534.039 42.6719 533.875 41.8047 533.609 41.0078C533.359 40.2109 533 39.5234 532.531 38.9453C532.078 38.3672 531.516 37.9141 530.844 37.5859C530.172 37.2578 529.375 37.0938 528.453 37.0938C527.5 37.0938 526.688 37.3047 526.016 37.7266C525.344 38.1328 524.797 38.7031 524.375 39.4375C523.953 40.1719 523.641 41.0234 523.438 41.9922C523.25 42.9609 523.156 44.0078 523.156 45.1328ZM551.258 37.8203V58H545.07V32.6406H550.93L551.258 37.8203ZM558.969 32.4766L558.875 38.2422C558.531 38.1797 558.141 38.1328 557.703 38.1016C557.281 38.0703 556.883 38.0547 556.508 38.0547C555.555 38.0547 554.719 38.1875 554 38.4531C553.281 38.7031 552.68 39.0703 552.195 39.5547C551.727 40.0391 551.367 40.6328 551.117 41.3359C550.867 42.0234 550.727 42.8047 550.695 43.6797L549.359 43.5156C549.359 41.9062 549.523 40.4141 549.852 39.0391C550.18 37.6641 550.656 36.4609 551.281 35.4297C551.906 34.3984 552.688 33.6016 553.625 33.0391C554.578 32.4609 555.672 32.1719 556.906 32.1719C557.25 32.1719 557.617 32.2031 558.008 32.2656C558.414 32.3125 558.734 32.3828 558.969 32.4766ZM575.539 52.6094V40.9141C575.539 40.0547 575.391 39.3125 575.094 38.6875C574.797 38.0625 574.344 37.5781 573.734 37.2344C573.125 36.8906 572.352 36.7188 571.414 36.7188C570.586 36.7188 569.859 36.8594 569.234 37.1406C568.625 37.4219 568.156 37.8203 567.828 38.3359C567.5 38.8359 567.336 39.4141 567.336 40.0703H561.125C561.125 39.0234 561.375 38.0312 561.875 37.0938C562.375 36.1406 563.086 35.2969 564.008 34.5625C564.945 33.8125 566.062 33.2266 567.359 32.8047C568.672 32.3828 570.141 32.1719 571.766 32.1719C573.688 32.1719 575.398 32.5 576.898 33.1562C578.414 33.7969 579.602 34.7656 580.461 36.0625C581.336 37.3594 581.773 38.9922 581.773 40.9609V52.0234C581.773 53.2891 581.852 54.375 582.008 55.2812C582.18 56.1719 582.43 56.9453 582.758 57.6016V58H576.453C576.156 57.3594 575.93 56.5469 575.773 55.5625C575.617 54.5625 575.539 53.5781 575.539 52.6094ZM576.406 42.5547L576.453 46.2344H572.539C571.57 46.2344 570.719 46.3359 569.984 46.5391C569.25 46.7266 568.648 47.0078 568.18 47.3828C567.711 47.7422 567.359 48.1797 567.125 48.6953C566.891 49.1953 566.773 49.7656 566.773 50.4062C566.773 51.0312 566.914 51.5938 567.195 52.0938C567.492 52.5938 567.914 52.9922 568.461 53.2891C569.023 53.5703 569.68 53.7109 570.43 53.7109C571.523 53.7109 572.477 53.4922 573.289 53.0547C574.102 52.6016 574.734 52.0547 575.188 51.4141C575.641 50.7734 575.883 50.1641 575.914 49.5859L577.695 52.2578C577.477 52.8984 577.148 53.5781 576.711 54.2969C576.273 55.0156 575.711 55.6875 575.023 56.3125C574.336 56.9375 573.508 57.4531 572.539 57.8594C571.57 58.2656 570.445 58.4688 569.164 58.4688C567.523 58.4688 566.055 58.1406 564.758 57.4844C563.461 56.8281 562.438 55.9297 561.688 54.7891C560.938 53.6484 560.562 52.3516 560.562 50.8984C560.562 49.5547 560.812 48.3672 561.312 47.3359C561.812 46.3047 562.555 45.4375 563.539 44.7344C564.523 44.0156 565.742 43.4766 567.195 43.1172C568.664 42.7422 570.344 42.5547 572.234 42.5547H576.406Z" fill="white"/>
<defs>
<linearGradient id="paint0_linear_1_3" x1="387" y1="-12" x2="394" y2="308" gradientUnits="userSpaceOnUse">
<stop stop-color="#250042"/>
<stop offset="1" stop-color="#000AFF" stop-opacity="0"/>
<stop offset="1" stop-color="#000AF5" stop-opacity="0.0690513"/>
<stop offset="1" stop-color="#0C07C2" stop-opacity="0.321011"/>
</linearGradient>
</defs>
</svg>
